<svg width="72" height="50" viewBox="0 0 72 50" fill="none" xmlns="http://www.w3.org/2000/svg">
<rect width="72" height="50" rx="25" fill="black"/>
<path d="M36 28C37.6569 28 39 26.6569 39 25C39 23.3431 37.6569 22 36 22C34.3431 22 33 23.3431 33 25C33 26.6569 34.3431 28 36 28Z" fill="white"/>
<path d="M44 17H40.83L39.59 15.65C39.4033 15.4459 39.1762 15.2827 38.9232 15.1708C38.6701 15.059 38.3967 15.0008 38.12 15H33.88C33.32 15 32.78 15.24 32.4 15.65L31.17 17H28C26.9 17 26 17.9 26 19V31C26 32.1 26.9 33 28 33H44C45.1 33 46 32.1 46 31V19C46 17.9 45.1 17 44 17ZM36 30C33.24 30 31 27.76 31 25C31 22.24 33.24 20 36 20C38.76 20 41 22.24 41 25C41 27.76 38.76 30 36 30Z" fill="white"/>
</svg>
