<svg width="48" height="48" viewBox="0 0 48 48" fill="none" xmlns="http://www.w3.org/2000/svg">
<rect width="48" height="48" rx="24" fill="#E7E7E7"/>
<path d="M17.636 30.3639C19.1084 31.8364 21.0459 32.7527 23.1183 32.9567C25.1906 33.1607 27.2696 32.6398 29.0009 31.4827C30.7322 30.3256 32.0087 28.604 32.6129 26.6112C33.217 24.6184 33.1115 22.4778 32.3142 20.5541C31.5169 18.6304 30.0772 17.0427 28.2404 16.0616C26.4037 15.0805 24.2835 14.7666 22.2413 15.1735C20.1991 15.5804 18.3612 16.6829 17.0407 18.2931C15.7203 19.9033 14.9991 21.9216 15 24.0039V25.9999" stroke="black" stroke-width="1.58333" stroke-linecap="round" stroke-linejoin="round"/>
<path d="M13 24L15 26L17 24M23 20V25H28" stroke="black" stroke-width="1.58333" stroke-linecap="round" stroke-linejoin="round"/>
</svg>
