<svg width="24" height="24" viewBox="0 0 24 24" fill="none" xmlns="http://www.w3.org/2000/svg">
<path d="M5.4998 7.47C6.2398 8.2 6.4298 9.25 6.0798 10.15L8.9998 13.07V11C8.9998 10.45 9.4498 10 9.9998 10H11.0298C10.9998 9.83 10.9998 9.67 10.9998 9.5C10.9998 6.46 13.4598 4 16.4998 4C17.6326 3.99894 18.7381 4.34788 19.665 4.9991C20.5919 5.65032 21.295 6.572 21.6781 7.63807C22.0612 8.70414 22.1055 9.86253 21.8051 10.9548C21.5047 12.047 20.8742 13.0198 19.9998 13.74V20C19.9998 20.55 19.5498 21 18.9998 21H9.9998C9.4498 21 8.9998 20.55 8.9998 20L8.9998 15.89L4.6698 11.56C3.7698 11.91 2.7198 11.73 1.9998 11L5.4998 7.47ZM19.9498 10C19.9698 9.83 19.9998 9.67 19.9998 9.5C19.9998 7.57 18.4298 6 16.4998 6C14.5698 6 12.9998 7.57 12.9998 9.5C12.9998 9.67 13.0298 9.83 13.0498 10H19.9498Z" fill="white"/>
</svg>
