<svg width="24" height="24" viewBox="0 0 24 24" fill="none" xmlns="http://www.w3.org/2000/svg">
<path d="M11.9997 20.8669C9.78305 20.8669 7.89539 20.1002 6.33672 18.5669C4.77805 17.0335 3.99905 15.1669 3.99972 12.9669C3.99972 11.9169 4.20405 10.9129 4.61272 9.95488C5.02139 8.99688 5.60039 8.15088 6.34972 7.41688L10.5997 3.24188C10.7997 3.05855 11.0207 2.91688 11.2627 2.81688C11.5047 2.71688 11.7504 2.66688 11.9997 2.66688C12.2491 2.66688 12.4951 2.71688 12.7377 2.81688C12.9804 2.91688 13.2011 3.05855 13.3997 3.24188L17.6497 7.41688C18.3997 8.15021 18.9791 8.99621 19.3877 9.95488C19.7964 10.9135 20.0004 11.9175 19.9997 12.9669C19.9997 15.1669 19.2207 17.0335 17.6627 18.5669C16.1047 20.1002 14.2171 20.8669 11.9997 20.8669ZM6.01171 15.4346C6.00163 15.7658 6.26835 16.0334 6.59972 16.0334H17.3997C17.7311 16.0334 17.9978 15.7658 17.9877 15.4346C17.9468 14.0885 17.8008 11.3223 17.5497 10.7299C17.2497 10.0219 16.8164 9.40088 16.2497 8.86688L11.9997 4.66688L7.74972 8.86688C7.18305 9.40021 6.74972 10.0212 6.44972 10.7299C6.19869 11.3229 6.05269 14.0888 6.01171 15.4346Z" fill="white"/>
</svg>
