<svg width="48" height="48" viewBox="0 0 48 48" fill="none" xmlns="http://www.w3.org/2000/svg">
<rect width="48" height="48" rx="24" fill="#E7E7E7"/>
<path d="M31.3503 16.6619C31.2423 16.5538 31.1141 16.468 30.973 16.4094C30.8319 16.3509 30.6806 16.3207 30.5278 16.3207C30.375 16.3207 30.2237 16.3509 30.0825 16.4094C29.9414 16.468 29.8132 16.5538 29.7053 16.6619L24.0003 22.3553L18.2953 16.6503C18.1872 16.5422 18.059 16.4566 17.9179 16.3981C17.7768 16.3397 17.6255 16.3096 17.4728 16.3096C17.32 16.3096 17.1688 16.3397 17.0276 16.3981C16.8865 16.4566 16.7583 16.5422 16.6503 16.6503C16.5422 16.7583 16.4566 16.8865 16.3981 17.0276C16.3397 17.1688 16.3096 17.32 16.3096 17.4728C16.3096 17.6255 16.3397 17.7768 16.3981 17.9179C16.4566 18.059 16.5422 18.1872 16.6503 18.2953L22.3553 24.0003L16.6503 29.7053C16.5422 29.8133 16.4566 29.9415 16.3981 30.0826C16.3397 30.2238 16.3096 30.375 16.3096 30.5278C16.3096 30.6805 16.3397 30.8318 16.3981 30.9729C16.4566 31.114 16.5422 31.2422 16.6503 31.3503C16.7583 31.4583 16.8865 31.544 17.0276 31.6024C17.1688 31.6609 17.32 31.6909 17.4728 31.6909C17.6255 31.6909 17.7768 31.6609 17.9179 31.6024C18.059 31.544 18.1872 31.4583 18.2953 31.3503L24.0003 25.6453L29.7053 31.3503C29.8133 31.4583 29.9415 31.544 30.0826 31.6024C30.2238 31.6609 30.375 31.6909 30.5278 31.6909C30.6805 31.6909 30.8318 31.6609 30.9729 31.6024C31.114 31.544 31.2422 31.4583 31.3503 31.3503C31.4583 31.2422 31.544 31.114 31.6024 30.9729C31.6609 30.8318 31.6909 30.6805 31.6909 30.5278C31.6909 30.375 31.6609 30.2238 31.6024 30.0826C31.544 29.9415 31.4583 29.8133 31.3503 29.7053L25.6453 24.0003L31.3503 18.2953C31.7936 17.8519 31.7936 17.1053 31.3503 16.6619Z" fill="black"/>
</svg>
