<svg width="34" height="28" viewBox="0 0 34 28" fill="none" xmlns="http://www.w3.org/2000/svg">
<rect width="34" height="28" rx="14" fill="#D18800"/>
<path d="M12.5 21.0623C11.6688 21.0623 10.9609 20.7748 10.3764 20.1998C9.79188 19.6248 9.49975 18.9248 9.5 18.0998C9.5 17.7061 9.57663 17.3296 9.72988 16.9703C9.88313 16.6111 10.1003 16.2938 10.3813 16.0186L11.975 14.4529C12.05 14.3842 12.1329 14.3311 12.2236 14.2936C12.3144 14.2561 12.4065 14.2373 12.5 14.2373C12.5935 14.2373 12.6858 14.2561 12.7768 14.2936C12.8678 14.3311 12.9505 14.3842 13.025 14.4529L14.6188 16.0186C14.9 16.2936 15.1173 16.6108 15.2705 16.9703C15.4238 17.3298 15.5003 17.7063 15.5 18.0998C15.5 18.9248 15.2079 19.6248 14.6236 20.1998C14.0394 20.7748 13.3315 21.0623 12.5 21.0623Z" fill="white"/>
<path d="M20.5 21.0623C19.6688 21.0623 18.9609 20.7748 18.3764 20.1998C17.7919 19.6248 17.4998 18.9248 17.5 18.0998C17.5 17.7061 17.5766 17.3296 17.7299 16.9703C17.8831 16.6111 18.1003 16.2938 18.3813 16.0186L19.975 14.4529C20.05 14.3842 20.1329 14.3311 20.2236 14.2936C20.3144 14.2561 20.4065 14.2373 20.5 14.2373C20.5935 14.2373 20.6858 14.2561 20.7768 14.2936C20.8678 14.3311 20.9505 14.3842 21.025 14.4529L22.6188 16.0186C22.9 16.2936 23.1173 16.6108 23.2705 16.9703C23.4238 17.3298 23.5003 17.7063 23.5 18.0998C23.5 18.9248 23.2079 19.6248 22.6236 20.1998C22.0394 20.7748 21.3315 21.0623 20.5 21.0623Z" fill="white"/>
<path d="M16.5 14.0623C15.6688 14.0623 14.9609 13.7748 14.3764 13.1998C13.7919 12.6248 13.4998 11.9248 13.5 11.0998C13.5 10.7061 13.5766 10.3296 13.7299 9.9703C13.8831 9.61105 14.1003 9.2938 14.3813 9.01855L15.975 7.45293C16.05 7.38418 16.1329 7.33105 16.2236 7.29355C16.3144 7.25605 16.4065 7.2373 16.5 7.2373C16.5935 7.2373 16.6858 7.25605 16.7768 7.29355C16.8678 7.33105 16.9505 7.38418 17.025 7.45293L18.6188 9.01855C18.9 9.29355 19.1173 9.6108 19.2705 9.9703C19.4238 10.3298 19.5003 10.7063 19.5 11.0998C19.5 11.9248 19.2079 12.6248 18.6236 13.1998C18.0394 13.7748 17.3315 14.0623 16.5 14.0623Z" fill="white"/>
</svg>
