<svg width="34" height="28" viewBox="0 0 34 28" fill="none" xmlns="http://www.w3.org/2000/svg">
<rect width="34" height="28" rx="14" fill="white"/>
<path d="M17 20.65C15.3375 20.65 13.9218 20.075 12.7528 18.925C11.5838 17.775 10.9995 16.375 11 14.725C11 13.9375 11.1533 13.1845 11.4598 12.466C11.7663 11.7475 12.2005 11.113 12.7625 10.5625L15.95 7.43125C16.1 7.29375 16.2658 7.1875 16.4473 7.1125C16.6288 7.0375 16.813 7 17 7C17.187 7 17.3715 7.0375 17.5535 7.1125C17.7355 7.1875 17.901 7.29375 18.05 7.43125L21.2375 10.5625C21.8 11.1125 22.2345 11.747 22.541 12.466C22.8475 13.185 23.0005 13.938 23 14.725C23 16.375 22.4158 17.775 21.2473 18.925C20.0788 20.075 18.663 20.65 17 20.65ZM12.5 11.65L17 8.0249L21.5 11.65C21.5 11.0625 21.3875 13.5782 21.1625 13.0472C20.9375 12.5162 20.6125 12.0505 20.1875 11.65L17 8.5L13.8125 11.65C13.3875 12.05 13.0625 12.5157 12.8375 13.0472C12.6125 13.5787 12.5 11.063 12.5 11.65Z" fill="#06C1C7"/>
</svg>
