<svg width="34" height="28" viewBox="0 0 34 28" fill="none" xmlns="http://www.w3.org/2000/svg">
<rect width="34" height="28" rx="14" fill="#FF004F"/>
<path d="M16.9998 20.6501C15.3373 20.6501 13.9215 20.0751 12.7525 18.9251C11.5835 17.7751 10.9993 16.3751 10.9998 14.7251C10.9998 13.9376 11.153 13.1846 11.4595 12.4661C11.766 11.7476 12.2003 11.1131 12.7623 10.5626L15.9498 7.43135C16.0998 7.29385 16.2655 7.1876 16.447 7.1126C16.6285 7.0376 16.8128 7.0001 16.9998 7.0001C17.1868 7.0001 17.3713 7.0376 17.5533 7.1126C17.7353 7.1876 17.9008 7.29385 18.0498 7.43135L21.2373 10.5626C21.7998 11.1126 22.2343 11.7471 22.5408 12.4661C22.8473 13.1851 23.0003 13.9381 22.9998 14.7251C22.9998 16.3751 22.4155 17.7751 21.247 18.9251C20.0785 20.0751 18.6628 20.6501 16.9998 20.6501ZM12.5137 16.4262C12.5022 16.7573 12.7684 17.025 13.0998 17.025H20.8998C21.2312 17.025 21.4974 16.7573 21.4859 16.4262C21.4496 15.3742 21.3417 13.4707 21.1623 13.0473C20.9373 12.5163 20.6123 12.0506 20.1873 11.6501L16.9998 8.5001L13.8123 11.6501C13.3873 12.0501 13.0623 12.5158 12.8373 13.0473C12.6579 13.4711 12.55 15.3744 12.5137 16.4262Z" fill="white"/>
</svg>
