<svg width="34" height="28" viewBox="0 0 34 28" fill="none" xmlns="http://www.w3.org/2000/svg">
<rect width="34" height="28" rx="14" fill="#D9D9D9"/>
<path d="M22.6354 8.36436C21.1483 6.87725 18.7419 6.87725 17.2565 8.36436L16.0015 9.61943C15.7539 9.86699 15.7539 10.2684 16.0015 10.5159V10.5159C16.249 10.7635 16.6504 10.7635 16.898 10.5159L18.153 9.26084C19.0987 8.31514 20.6948 8.21494 21.739 9.26084C22.7849 10.3067 22.6847 11.9011 21.739 12.8468L20.4848 14.101C20.2367 14.349 20.2367 14.7512 20.4848 14.9992V14.9992C20.7328 15.2473 21.135 15.2473 21.383 14.9992L22.6372 13.745C24.1208 12.2579 24.1208 9.85147 22.6354 8.36436ZM15.8485 18.739C14.9028 19.6847 13.3067 19.7849 12.2626 18.739C11.2167 17.6931 11.3169 16.0987 12.2626 15.153L13.5168 13.8988C13.7648 13.6508 13.7648 13.2486 13.5168 13.0006V13.0006C13.2688 12.7525 12.8666 12.7525 12.6186 13.0006L11.3644 14.2548C9.87725 15.7419 9.87725 18.1483 11.3644 19.6337C12.8515 21.119 15.2579 21.1208 16.7433 19.6337L17.9986 18.3784C18.246 18.131 18.246 17.7298 17.9986 17.4824V17.4824C17.751 17.2348 17.3494 17.235 17.1021 17.4828L15.8485 18.739ZM12.5755 8.68076C12.5491 8.65459 12.5134 8.63991 12.4762 8.63991C12.439 8.63991 12.4033 8.65459 12.3769 8.68076L11.6808 9.37686C11.6546 9.40329 11.6399 9.43898 11.6399 9.47617C11.6399 9.51337 11.6546 9.54906 11.6808 9.57549L21.4261 19.3208C21.4806 19.3753 21.5702 19.3753 21.6247 19.3208L22.3208 18.6247C22.3753 18.5702 22.3753 18.4806 22.3208 18.4261L12.5755 8.68076Z" fill="white"/>
</svg>
